<?xml version="1.0" encoding="utf-8"?>
<!-- Generator: Adobe Illustrator 17.0.0, SVG Export Plug-In . SVG Version: 6.00 Build 0)  -->
<!DOCTYPE svg PUBLIC "-//W3C//DTD SVG 1.1//EN" "http://www.w3.org/Graphics/SVG/1.1/DTD/svg11.dtd">
<svg version="1.1" id="Layer_1" xmlns="http://www.w3.org/2000/svg" xmlns:xlink="http://www.w3.org/1999/xlink" x="0px" y="0px"
	 width="145.667px" height="45.333px" viewBox="0 0 145.667 45.333" enable-background="new 0 0 145.667 45.333"
	 xml:space="preserve">
<g>
	<path fill="#FFFFFF" d="M54.8,29.43c0.67,0,1.171-0.182,1.501-0.546c0.33-0.365,0.496-0.892,0.496-1.582h4.489l0.029,0.087
		c0.039,1.72-0.556,3.121-1.785,4.205s-2.805,1.625-4.729,1.625c-2.4,0-4.248-0.741-5.545-2.223
		c-1.297-1.481-1.946-3.412-1.946-5.793v-0.335c0-2.371,0.646-4.299,1.938-5.786c1.292-1.486,3.133-2.23,5.523-2.23
		c2.001,0,3.602,0.557,4.802,1.669c1.2,1.112,1.78,2.635,1.741,4.569l-0.029,0.087h-4.489c0-0.748-0.17-1.358-0.51-1.829
		c-0.34-0.471-0.845-0.707-1.516-0.707c-0.952,0-1.615,0.382-1.989,1.144c-0.374,0.763-0.561,1.791-0.561,3.083v0.335
		c0,1.322,0.187,2.356,0.561,3.104S53.828,29.43,54.8,29.43z"/>
	<path fill="#FFFFFF" d="M68.106,19.097c0.476-0.709,1.057-1.261,1.741-1.654c0.685-0.394,1.44-0.59,2.267-0.59
		c1.632,0,2.915,0.568,3.847,1.705s1.399,2.9,1.399,5.291v9.064h-4.926v-9.094c0-1.205-0.155-2.035-0.466-2.492
		c-0.311-0.457-0.782-0.685-1.414-0.685c-0.554,0-1.035,0.081-1.443,0.241c-0.408,0.16-0.743,0.386-1.005,0.678v11.353H63.18V10.178
		h4.926V19.097z"/>
	<path fill="#FFFFFF" d="M86.497,33.219c-2.39,0-4.263-0.724-5.618-2.171c-1.355-1.448-2.033-3.279-2.033-5.494v-0.554
		c0-2.409,0.639-4.372,1.917-5.887c1.277-1.516,3.126-2.269,5.545-2.259c2.128,0,3.777,0.637,4.948,1.909
		c1.171,1.273,1.756,3.017,1.756,5.232v2.58h-9.036l-0.029,0.087c0.078,0.826,0.384,1.494,0.918,2.004
		c0.534,0.51,1.302,0.765,2.302,0.765c0.942,0,1.727-0.078,2.354-0.233c0.626-0.155,1.343-0.403,2.149-0.743l1.18,3.002
		c-0.68,0.496-1.593,0.914-2.74,1.253S87.76,33.219,86.497,33.219z M86.308,20.642c-0.787,0-1.367,0.25-1.741,0.751
		s-0.59,1.178-0.648,2.033l0.029,0.073h4.255v-0.379c0-0.816-0.143-1.433-0.43-1.851C87.486,20.851,86.998,20.642,86.308,20.642z"/>
	<path fill="#FFFFFF" d="M96.159,32.913V20.554h-2.273v-3.41h2.273v-1.632c0-1.807,0.544-3.199,1.632-4.175
		c1.088-0.977,2.628-1.465,4.62-1.465c0.379,0,0.76,0.027,1.144,0.08c0.384,0.054,0.813,0.129,1.29,0.226l-0.364,3.629
		c-0.272-0.049-0.51-0.085-0.714-0.109s-0.452-0.037-0.743-0.037c-0.622,0-1.098,0.16-1.428,0.481
		c-0.331,0.321-0.496,0.777-0.496,1.37v1.632h3.119v3.41H101.1v12.358H96.159z"/>
	<path fill="#FFFFFF" d="M110.092,32.913h-4.911v-4.139h4.911V32.913z"/>
	<path fill="#FFFFFF" d="M121.927,30.552c-0.466,0.855-1.071,1.513-1.814,1.975s-1.601,0.692-2.572,0.692
		c-1.632,0-2.912-0.573-3.84-1.72c-0.928-1.146-1.392-2.919-1.392-5.319v-9.036h4.912v9.065c0,1.234,0.158,2.079,0.474,2.536
		c0.315,0.457,0.804,0.685,1.464,0.685c0.525,0,0.986-0.073,1.385-0.219c0.398-0.146,0.738-0.364,1.02-0.656V17.144h4.926v15.769
		h-3.964L121.927,30.552z"/>
	<path fill="#FFFFFF" d="M143.205,25.364c0,2.371-0.534,4.272-1.603,5.705c-1.069,1.434-2.575,2.15-4.518,2.15
		c-0.758,0-1.431-0.146-2.019-0.438s-1.1-0.714-1.538-1.268v7.461h-4.926V17.144h4.649l0.146,1.72
		c0.437-0.641,0.959-1.137,1.566-1.486c0.607-0.35,1.304-0.525,2.091-0.525c1.953,0,3.466,0.753,4.54,2.259s1.61,3.488,1.61,5.946
		V25.364z M138.294,25.058c0-1.331-0.194-2.4-0.583-3.206c-0.389-0.807-1.01-1.21-1.865-1.21c-0.554,0-1.023,0.102-1.406,0.306
		c-0.384,0.204-0.688,0.5-0.911,0.889v6.587c0.233,0.34,0.542,0.593,0.926,0.758c0.383,0.166,0.857,0.248,1.421,0.248
		c0.864,0,1.484-0.357,1.858-1.071c0.374-0.714,0.561-1.712,0.561-2.995V25.058z"/>
</g>
<g>
	<path fill="#FFFFFF" d="M39.145,1.901H6.343c-2.605,0-4.717,2.112-4.717,4.717V39.42c0,2.605,2.112,4.717,4.717,4.717h32.801
		c2.605,0,4.717-2.112,4.717-4.717V6.619C43.862,4.014,41.75,1.901,39.145,1.901z M15.084,17.278
		c-0.434,0.876-1.036,1.614-1.849,2.173c-0.715,0.492-1.057,1.179-1.047,2.047c0.007,0.567,0.014,1.135-0.002,1.702
		c-0.012,0.413,0.116,0.765,0.433,1.015c0.609,0.479,0.776,1.087,0.769,1.85c-0.032,3.564-0.011,7.129-0.016,10.693
		c-0.002,1.307-0.964,2.345-2.221,2.416C9.8,39.251,8.66,38.188,8.652,36.816c-0.012-1.887-0.003-3.774-0.003-5.661
		c0-1.838,0.009-3.676-0.006-5.513c-0.004-0.505,0.13-0.924,0.535-1.234c0.502-0.384,0.713-0.875,0.663-1.514
		c-0.042-0.539-0.004-1.085-0.013-1.627c-0.012-0.733-0.277-1.372-0.874-1.796c-1.532-1.086-2.278-2.61-2.56-4.41
		c-0.31-1.981-0.02-3.861,1.027-5.587C7.7,9.015,8.045,8.58,8.428,8.203c1.628-1.603,3.8-1.6,5.448-0.013
		c1.05,1.011,1.628,2.276,1.896,3.687C16.128,13.749,15.936,15.559,15.084,17.278z M27.58,15.239
		c-0.014,1.733-0.756,3.104-2.223,4.022c-0.933,0.584-1.38,1.362-1.329,2.454c0.024,0.517,0.015,1.036,0.002,1.554
		c-0.01,0.383,0.095,0.725,0.393,0.956c0.658,0.513,0.818,1.17,0.81,1.983c-0.036,3.515-0.013,7.031-0.017,10.547
		c-0.002,1.309-0.962,2.346-2.219,2.419c-1.351,0.078-2.493-0.985-2.501-2.356c-0.012-1.875-0.003-3.75-0.003-5.625
		c0-1.838,0.009-3.676-0.006-5.514c-0.004-0.493,0.122-0.905,0.519-1.201c0.536-0.4,0.732-0.922,0.68-1.581
		c-0.038-0.49-0.006-0.986-0.01-1.48c-0.007-0.854-0.354-1.544-1.082-1.986c-1.736-1.052-2.511-2.587-2.478-4.601
		c0.035-2.121,0.004-4.243,0.01-6.365c0.003-0.904,0.816-1.485,1.613-1.166c0.464,0.185,0.739,0.612,0.74,1.173
		c0.003,1.838,0.001,3.676,0.001,5.514c0,0.099-0.003,0.198,0.001,0.296c0.018,0.375,0.252,0.623,0.59,0.627
		c0.338,0.004,0.588-0.243,0.603-0.613c0.01-0.246,0.003-0.493,0.003-0.74c0-1.702,0-3.405,0-5.107c0-0.485,0.199-0.861,0.63-1.093
		c0.404-0.218,0.81-0.194,1.192,0.057c0.383,0.252,0.536,0.622,0.535,1.074c-0.004,1.85-0.001,3.701-0.001,5.551
		c0,0.099-0.005,0.198,0.003,0.296c0.029,0.343,0.279,0.579,0.604,0.574c0.325-0.005,0.563-0.242,0.588-0.591
		c0.007-0.098,0.002-0.197,0.002-0.296c0-1.826-0.001-3.651,0.001-5.477c0.001-0.791,0.479-1.33,1.176-1.331
		c0.696-0.001,1.179,0.539,1.18,1.327C27.587,10.773,27.598,13.006,27.58,15.239z M37.06,36.741
		c-0.001,1.344-0.993,2.395-2.279,2.435c-1.355,0.042-2.441-1.024-2.443-2.419c-0.005-3.01-0.002-6.02-0.002-9.031
		c0-1.283,0.002-2.566-0.001-3.849c-0.002-0.755-0.446-1.23-1.188-1.282c-0.725-0.05-1.177-0.522-1.178-1.254
		c-0.003-2.455-0.024-4.91,0.009-7.365c0.024-1.798,0.29-3.563,1.034-5.223c0.357-0.797,0.831-1.515,1.551-2.038
		c0.75-0.545,1.594-0.797,2.512-0.648c1.203,0.195,1.985,1.16,1.986,2.397c0.003,4.725,0.001,9.45,0.001,14.175
		C37.061,27.34,37.063,32.04,37.06,36.741z"/>
</g>
<g>
</g>
<g>
</g>
<g>
</g>
<g>
</g>
<g>
</g>
<g>
</g>
<g>
</g>
<g>
</g>
<g>
</g>
<g>
</g>
<g>
</g>
<g>
</g>
<g>
</g>
<g>
</g>
<g>
</g>
</svg>
